<svg width="224" height="224" viewBox="0 0 224 224" fill="none" xmlns="http://www.w3.org/2000/svg">
<path fill-rule="evenodd" clip-rule="evenodd" d="M152.358 37.7003C139.608 33.3573 125.938 31 111.717 31C70.1483 31 33.2817 51.1422 10.3516 82.1474C6.41089 87.476 7.53593 94.9902 12.8645 98.9309C18.193 102.872 25.7072 101.747 29.648 96.4181C48.2473 71.2686 78.0811 55 111.717 55C118.968 55 126.042 55.756 132.865 57.1939L152.358 37.7003ZM109.011 81.0473C81.8292 81.9987 58.2922 97.2295 45.6483 119.415C42.3668 125.173 44.3744 132.501 50.1324 135.783C51.0802 136.323 52.0706 136.72 53.0784 136.98L109.011 81.0473ZM142.705 115.236L159.799 98.1423C167.025 104.052 173.141 111.265 177.786 119.415C181.067 125.173 179.06 132.501 173.302 135.783C167.544 139.064 160.216 137.057 156.934 131.299C153.345 125.001 148.485 119.531 142.705 115.236ZM90.2326 167.708L122.425 135.515C130.305 139.451 135.717 147.593 135.717 157C135.717 170.255 124.972 181 111.717 181C102.31 181 94.1677 175.588 90.2326 167.708ZM178.254 79.6864L195.262 62.6794C201.858 68.5257 207.835 75.0521 213.082 82.1474C217.023 87.476 215.898 94.9902 210.57 98.9309C205.241 102.872 197.727 101.747 193.786 96.4181C189.243 90.2751 184.03 84.662 178.254 79.6864Z" fill="#BFD5FF"/>
<path d="M181 43L43 181" stroke="#BFD5FF" stroke-width="24" stroke-linecap="round"/>
</svg>
