<svg width="48" height="48" viewBox="0 0 48 48" fill="none" xmlns="http://www.w3.org/2000/svg">
<g clip-path="url(#clip0_751_4125)">
<path d="M21.9375 23.625C21.9375 26.1103 19.9228 28.125 17.4375 28.125C14.9522 28.125 12.9375 26.1103 12.9375 23.625C12.9375 21.1397 14.9522 19.125 17.4375 19.125C19.9228 19.125 21.9375 21.1397 21.9375 23.625Z" fill="#BFD5FF"/>
<path fill-rule="evenodd" clip-rule="evenodd" d="M24.3796 16.7307C20.572 12.9231 14.3986 12.9231 10.591 16.7307C9.71231 17.6094 8.28769 17.6094 7.40901 16.7307C6.53033 15.852 6.53033 14.4274 7.40901 13.5487C12.974 7.98376 21.9966 7.98376 27.5616 13.5487C33.1265 19.1137 33.1265 28.1363 27.5616 33.7013C27.1041 34.1587 26.6467 34.606 26.1942 35.0484C24.7122 36.4977 23.2841 37.8941 22.089 39.4187C20.5576 41.372 19.6875 43.209 19.6875 45.0987V45.75C19.6875 46.9926 18.6801 48 17.4375 48C16.1949 48 15.1875 46.9926 15.1875 45.75V45.0987C15.1875 41.7622 16.7362 38.9527 18.5475 36.6423C19.9453 34.8594 21.6671 33.1776 23.184 31.6958C23.6018 31.2878 24.004 30.8949 24.3796 30.5193C28.1872 26.7117 28.1872 20.5383 24.3796 16.7307Z" fill="#BFD5FF"/>
<path fill-rule="evenodd" clip-rule="evenodd" d="M30.9316 10.0205C26.2587 5.41063 19.334 3.33003 12.5355 5.15167C11.3352 5.47329 10.1015 4.76098 9.77986 3.56068C9.45824 2.36038 10.1706 1.12663 11.3709 0.805007C21.9285 -2.0239 32.7326 2.76544 37.9467 11.8033C43.1751 20.8394 41.9231 32.5981 34.1908 40.3304C33.3122 41.209 31.8875 41.209 31.0089 40.3304C30.1302 39.4517 30.1302 38.0271 31.0089 37.1484C35.9856 32.1717 37.6461 25.1345 35.9905 18.7828C35.9791 18.7474 35.9685 18.7114 35.9588 18.6751C35.515 17.0189 34.867 15.4721 34.049 14.0544C33.2314 12.6414 32.218 11.3107 31.0089 10.1016C30.9823 10.075 30.9566 10.048 30.9316 10.0205Z" fill="#BFD5FF"/>
</g>
<defs>
<clipPath id="clip0_751_4125">
<rect width="48" height="48" fill="white"/>
</clipPath>
</defs>
</svg>
