<svg width="60" height="13" viewBox="0 0 60 13" fill="none" xmlns="http://www.w3.org/2000/svg">
<path d="M6.75124 12.4929C5.80948 12.4929 4.97698 12.3636 4.25373 12.1051C3.53048 11.8497 2.92264 11.4727 2.43022 10.9741C1.9378 10.4755 1.5654 9.86458 1.31303 9.14134C1.06067 8.41809 0.934482 7.5902 0.934482 6.65767C0.934482 5.75592 1.0622 4.94957 1.31765 4.23864C1.57617 3.5277 1.95011 2.92448 2.43945 2.42898C2.93188 1.9304 3.52894 1.55031 4.23065 1.28871C4.93543 1.02711 5.73254 0.896306 6.62198 0.896306C7.4868 0.896306 8.2439 1.03788 8.89329 1.32102C9.54575 1.60109 10.0905 1.98118 10.5275 2.46129C10.9676 2.93833 11.2969 3.47538 11.5154 4.07244C11.737 4.66951 11.8478 5.28504 11.8478 5.91903C11.8478 6.36529 11.8263 6.81771 11.7832 7.27628C11.7401 7.73485 11.6493 8.15649 11.5108 8.54119C11.3723 8.92282 11.1584 9.23059 10.8691 9.46449C10.5829 9.69839 10.1951 9.81534 9.70579 9.81534C9.49035 9.81534 9.25337 9.78149 8.99485 9.71378C8.73633 9.64607 8.50704 9.53374 8.307 9.37678C8.10695 9.21982 7.98846 9.009 7.95153 8.74432H7.89613C7.82227 8.92282 7.70839 9.09209 7.55451 9.25213C7.40371 9.41217 7.2052 9.53989 6.95898 9.6353C6.71585 9.73071 6.41886 9.77225 6.068 9.75994C5.66791 9.74455 5.31552 9.6553 5.01083 9.49219C4.70614 9.32599 4.4507 9.10133 4.2445 8.81818C4.04137 8.53196 3.88749 8.20111 3.78285 7.82564C3.68129 7.44709 3.6305 7.0393 3.6305 6.60227C3.6305 6.18679 3.69206 5.8067 3.81516 5.462C3.93827 5.11731 4.10908 4.8157 4.32759 4.55717C4.54918 4.29865 4.80771 4.09245 5.10316 3.93857C5.40169 3.78161 5.72331 3.68466 6.068 3.64773C6.37577 3.61695 6.65584 3.6308 6.9082 3.68928C7.16057 3.74467 7.36831 3.82931 7.53143 3.94318C7.69454 4.05398 7.79764 4.17708 7.84073 4.3125H7.89613V3.79545H8.87482V7.96875C8.87482 8.22727 8.94715 8.45502 9.0918 8.65199C9.23645 8.84896 9.44727 8.94744 9.72425 8.94744C10.0382 8.94744 10.2782 8.83973 10.4444 8.62429C10.6137 8.40885 10.7291 8.07647 10.7907 7.62713C10.8553 7.17779 10.8876 6.60227 10.8876 5.90057C10.8876 5.48816 10.8307 5.08191 10.7168 4.68182C10.606 4.27865 10.4367 3.90163 10.209 3.55078C9.98432 3.19993 9.69963 2.89062 9.35494 2.62287C9.01024 2.35511 8.60553 2.14583 8.1408 1.99503C7.67916 1.84115 7.15442 1.7642 6.56658 1.7642C5.84334 1.7642 5.19549 1.87654 4.62305 2.10121C4.05368 2.3228 3.56895 2.64749 3.16886 3.07528C2.77184 3.5 2.46869 4.01705 2.25941 4.62642C2.05321 5.23272 1.95011 5.92211 1.95011 6.6946C1.95011 7.4794 2.05321 8.17649 2.25941 8.78587C2.46869 9.39524 2.77646 9.90921 3.18271 10.3278C3.59203 10.7463 4.09831 11.0633 4.70153 11.2788C5.30475 11.4973 6.0003 11.6065 6.78817 11.6065C7.12672 11.6065 7.46064 11.5742 7.78995 11.5096C8.11926 11.445 8.4101 11.3742 8.66246 11.2972C8.91483 11.2203 9.09641 11.1634 9.20721 11.1264L9.46573 11.9759C9.27492 12.0559 9.02563 12.1359 8.71786 12.2159C8.41317 12.2959 8.08694 12.3621 7.73917 12.4144C7.39447 12.4667 7.06516 12.4929 6.75124 12.4929ZM6.21573 8.81818C6.62814 8.81818 6.96206 8.73509 7.21751 8.56889C7.47295 8.4027 7.65915 8.15187 7.7761 7.81641C7.89305 7.48094 7.95153 7.05777 7.95153 6.54688C7.95153 6.02983 7.8869 5.62666 7.75764 5.33736C7.62837 5.04806 7.43756 4.84493 7.18519 4.72798C6.93282 4.61103 6.62198 4.55256 6.25266 4.55256C5.90181 4.55256 5.60174 4.64489 5.35245 4.82955C5.10624 5.01113 4.91696 5.25426 4.78462 5.55895C4.65536 5.86056 4.59073 6.18987 4.59073 6.54688C4.59073 6.94081 4.64305 7.31167 4.74769 7.65945C4.85233 8.00414 5.02314 8.28421 5.26012 8.49964C5.4971 8.712 5.81564 8.81818 6.21573 8.81818ZM17.9474 7.10085V2.90909H19.0368V10H17.9474V8.79972H17.8735C17.7073 9.1598 17.4488 9.46603 17.0979 9.71839C16.7471 9.96768 16.3039 10.0923 15.7684 10.0923C15.3252 10.0923 14.9313 9.99538 14.5866 9.80149C14.2419 9.60452 13.971 9.30907 13.7741 8.91513C13.5771 8.51811 13.4786 8.01799 13.4786 7.41477V2.90909H14.5681V7.34091C14.5681 7.85795 14.7127 8.27036 15.002 8.57812C15.2944 8.88589 15.6668 9.03977 16.1192 9.03977C16.3901 9.03977 16.6655 8.97053 16.9456 8.83203C17.2287 8.69354 17.4657 8.48118 17.6565 8.19496C17.8504 7.90874 17.9474 7.54403 17.9474 7.10085ZM21.0323 10V2.90909H22.0849V3.98011H22.1587C22.288 3.62926 22.5219 3.34458 22.8604 3.12606C23.199 2.90755 23.5806 2.79829 24.0053 2.79829C24.0853 2.79829 24.1854 2.79983 24.3054 2.80291C24.4254 2.80599 24.5162 2.81061 24.5778 2.81676V3.92472C24.5408 3.91548 24.4562 3.90163 24.3239 3.88317C24.1946 3.86162 24.0576 3.85085 23.913 3.85085C23.5683 3.85085 23.2605 3.92318 22.9897 4.06783C22.7219 4.2094 22.5096 4.40637 22.3526 4.65874C22.1987 4.90803 22.1218 5.19271 22.1218 5.51278V10H21.0323ZM29.4712 2.90909V3.83239H25.6488V2.90909H29.4712ZM26.7937 10V1.9304C26.7937 1.52415 26.8891 1.18561 27.0799 0.914772C27.2707 0.643939 27.5185 0.440814 27.8232 0.305397C28.1278 0.16998 28.4495 0.102272 28.788 0.102272C29.0558 0.102272 29.2743 0.123816 29.4435 0.166903C29.6128 0.20999 29.739 0.249999 29.8221 0.286931L29.5082 1.22869C29.4528 1.21023 29.3758 1.18714 29.2773 1.15945C29.1819 1.13175 29.0558 1.1179 28.8988 1.1179C28.5387 1.1179 28.2786 1.20869 28.1186 1.39027C27.9616 1.57185 27.8832 1.83807 27.8832 2.18892V10H26.7937ZM35.4669 7.10085V2.90909H36.5564V10H35.4669V8.79972H35.393C35.2268 9.1598 34.9683 9.46603 34.6175 9.71839C34.2666 9.96768 33.8234 10.0923 33.2879 10.0923C32.8447 10.0923 32.4508 9.99538 32.1061 9.80149C31.7614 9.60452 31.4906 9.30907 31.2936 8.91513C31.0966 8.51811 30.9981 8.01799 30.9981 7.41477V2.90909H32.0876V7.34091C32.0876 7.85795 32.2323 8.27036 32.5216 8.57812C32.814 8.88589 33.1863 9.03977 33.6388 9.03977C33.9096 9.03977 34.185 8.97053 34.4651 8.83203C34.7483 8.69354 34.9852 8.48118 35.176 8.19496C35.3699 7.90874 35.4669 7.54403 35.4669 7.10085ZM39.3459 10.0739C39.1181 10.0739 38.9227 9.99231 38.7596 9.82919C38.5965 9.66607 38.5149 9.47064 38.5149 9.2429C38.5149 9.01515 38.5965 8.81972 38.7596 8.65661C38.9227 8.49349 39.1181 8.41193 39.3459 8.41193C39.5736 8.41193 39.7691 8.49349 39.9322 8.65661C40.0953 8.81972 40.1768 9.01515 40.1768 9.2429C40.1768 9.3937 40.1384 9.5322 40.0614 9.65838C39.9876 9.78456 39.8875 9.88613 39.7614 9.96307C39.6383 10.0369 39.4998 10.0739 39.3459 10.0739ZM42.1319 10V2.90909H43.1845V4.01705H43.2768C43.4245 3.63849 43.6631 3.34458 43.9924 3.1353C44.3217 2.92294 44.7172 2.81676 45.1788 2.81676C45.6466 2.81676 46.0359 2.92294 46.3468 3.1353C46.6607 3.34458 46.9054 3.63849 47.0808 4.01705H47.1547C47.3362 3.6508 47.6086 3.35997 47.9718 3.14453C48.3349 2.92602 48.7704 2.81676 49.2782 2.81676C49.9122 2.81676 50.4308 3.01527 50.834 3.41229C51.2372 3.80623 51.4387 4.42022 51.4387 5.25426V10H50.3493V5.25426C50.3493 4.73106 50.2061 4.35713 49.9199 4.13246C49.6337 3.90779 49.2967 3.79545 48.9089 3.79545C48.4103 3.79545 48.0241 3.94626 47.7502 4.24787C47.4763 4.5464 47.3393 4.92495 47.3393 5.38352V10H46.2314V5.14347C46.2314 4.74029 46.1006 4.4156 45.839 4.16939C45.5774 3.9201 45.2404 3.79545 44.8279 3.79545C44.5448 3.79545 44.2801 3.87086 44.0339 4.02166C43.7908 4.17247 43.5938 4.38175 43.443 4.6495C43.2953 4.91418 43.2214 5.22041 43.2214 5.56818V10H42.1319ZM56.4038 10.1477C55.7205 10.1477 55.1312 9.99692 54.6357 9.69531C54.1432 9.39062 53.7631 8.96591 53.4954 8.42116C53.2307 7.87334 53.0984 7.23627 53.0984 6.50994C53.0984 5.78362 53.2307 5.14347 53.4954 4.58949C53.7631 4.03243 54.1355 3.59848 54.6126 3.28764C55.0927 2.97372 55.6528 2.81676 56.293 2.81676C56.6623 2.81676 57.027 2.87831 57.3871 3.00142C57.7472 3.12453 58.0749 3.32457 58.3704 3.60156C58.6658 3.87547 58.9013 4.23864 59.0767 4.69105C59.2521 5.14347 59.3398 5.70052 59.3398 6.36222V6.82386H53.8739V5.8821H58.2319C58.2319 5.48201 58.1519 5.125 57.9918 4.81108C57.8349 4.49716 57.6102 4.24941 57.3178 4.06783C57.0285 3.88625 56.6869 3.79545 56.293 3.79545C55.859 3.79545 55.4835 3.90317 55.1665 4.11861C54.8526 4.33097 54.611 4.60795 54.4418 4.94957C54.2725 5.29119 54.1879 5.65743 54.1879 6.0483V6.67614C54.1879 7.21165 54.2802 7.6656 54.4648 8.038C54.6526 8.40732 54.9126 8.68892 55.245 8.88281C55.5774 9.07363 55.9637 9.16903 56.4038 9.16903C56.69 9.16903 56.9485 9.12902 57.1793 9.04901C57.4132 8.96591 57.6148 8.8428 57.7841 8.67969C57.9534 8.51349 58.0842 8.30729 58.1765 8.06108L59.229 8.35653C59.1183 8.71354 58.9321 9.02746 58.6705 9.2983C58.4089 9.56605 58.0857 9.77533 57.701 9.92614C57.3163 10.0739 56.8839 10.1477 56.4038 10.1477Z" fill="#B3B3B3"/>
</svg>
