<svg width="7" height="11" viewBox="0 0 7 11" fill="none" xmlns="http://www.w3.org/2000/svg">
<path d="M3.10105 9.29741C3.10105 9.08941 3.17038 8.91607 3.30905 8.77741C3.44771 8.63874 3.62105 8.56941 3.82905 8.56941C4.03705 8.56941 4.21038 8.63874 4.34905 8.77741C4.48771 8.91607 4.55705 9.08941 4.55705 9.29741C4.55705 9.50541 4.48771 9.67874 4.34905 9.81741C4.21038 9.95607 4.03705 10.0254 3.82905 10.0254C3.62105 10.0254 3.44771 9.95607 3.30905 9.81741C3.17038 9.67874 3.10105 9.50541 3.10105 9.29741ZM3.32205 7.26941C3.32205 6.88807 3.38271 6.55874 3.50405 6.28141C3.63405 6.00407 3.79438 5.76141 3.98505 5.55341C4.17571 5.33674 4.38371 5.14174 4.60905 4.96841C4.83438 4.79507 5.04238 4.62174 5.23305 4.44841C5.42371 4.26641 5.57971 4.07574 5.70105 3.87641C5.83105 3.67707 5.89605 3.44307 5.89605 3.17441C5.89605 2.75841 5.73138 2.41174 5.40205 2.13441C5.07271 1.84841 4.60905 1.70541 4.01105 1.70541C3.49105 1.70541 3.02738 1.82674 2.62005 2.06941C2.3569 2.22386 2.12585 2.43495 1.9269 2.70268C1.75075 2.93973 1.43089 3.04515 1.17134 2.90425C0.926558 2.77137 0.82447 2.4675 0.975051 2.23319C1.25314 1.80048 1.60647 1.45555 2.03505 1.19841C2.60705 0.860406 3.26571 0.691406 4.01105 0.691406C4.47905 0.691406 4.89505 0.756406 5.25905 0.886406C5.62305 1.01641 5.93071 1.19407 6.18205 1.41941C6.43338 1.64474 6.62405 1.90907 6.75405 2.21241C6.89271 2.51574 6.96205 2.83641 6.96205 3.17441C6.96205 3.52974 6.89705 3.83741 6.76705 4.09741C6.63705 4.34874 6.47238 4.57841 6.27305 4.78641C6.08238 4.99441 5.87438 5.18507 5.64905 5.35841C5.42371 5.53174 5.21138 5.71374 5.01205 5.90441C4.82138 6.09507 4.66105 6.30307 4.53105 6.52841C4.40105 6.74507 4.33605 7.00074 4.33605 7.29541C4.33605 7.56823 4.11488 7.78941 3.84205 7.78941H3.82905C3.54904 7.78941 3.32205 7.56242 3.32205 7.28241V7.26941Z" fill="#BFD5FF"/>
</svg>
