<svg width="20" height="20" viewBox="0 0 20 20" fill="none" xmlns="http://www.w3.org/2000/svg">
<path d="M19.5 6.00001C18.8156 6.93888 18.0666 7.77752 17.2638 8.5M0.5 6C1.18441 6.93887 1.93344 7.77752 2.73623 8.5M7 11.0241C7.96621 11.3358 8.97004 11.5 10 11.5C11.03 11.5 12.0338 11.3358 13 11.0241M7 11.0241L6 14.5M7 11.0241C5.46904 10.5304 4.03255 9.66665 2.73623 8.5M13 11.0241L14 14.5M13 11.0241C14.531 10.5304 15.9675 9.66665 17.2638 8.5M17.2638 8.5L19.5 11M2.73623 8.5L0.5 11" stroke="#B3B3B3" stroke-linecap="round" stroke-linejoin="round"/>
</svg>
