<svg width="18" height="18" viewBox="0 0 18 18" fill="none" xmlns="http://www.w3.org/2000/svg">
<g clip-path="url(#clip0_671_328)">
<path d="M15.5 17.5C16.6046 17.5 17.5253 16.5895 17.2364 15.5233C17.1365 15.1544 17.0085 14.7918 16.853 14.4385C16.4258 13.4679 15.7997 12.586 15.0104 11.8431C14.2211 11.1003 13.2841 10.511 12.2528 10.109C11.2215 9.70693 10.1162 9.5 9 9.5C7.88376 9.5 6.77846 9.70693 5.74719 10.109C4.71592 10.511 3.77889 11.1003 2.98959 11.8431C2.20029 12.586 1.57419 13.4679 1.14702 14.4385C0.991529 14.7918 0.863503 15.1544 0.763553 15.5233C0.474708 16.5895 1.39543 17.5 2.5 17.5L15.5 17.5Z" stroke="white"/>
<circle cx="9" cy="4" r="3.5" stroke="white"/>
</g>
<defs>
<clipPath id="clip0_671_328">
<rect width="18" height="18" fill="white"/>
</clipPath>
</defs>
</svg>
