<svg width="20" height="20" viewBox="0 0 20 20" fill="none" xmlns="http://www.w3.org/2000/svg">
<g clip-path="url(#clip0_86_271)">
<circle cx="10" cy="10" r="9.5" stroke="white"/>
<path d="M9.10105 14.2979C9.10105 14.0899 9.17038 13.9166 9.30905 13.7779C9.44771 13.6392 9.62105 13.5699 9.82905 13.5699C10.037 13.5699 10.2104 13.6392 10.349 13.7779C10.4877 13.9166 10.557 14.0899 10.557 14.2979C10.557 14.5059 10.4877 14.6792 10.349 14.8179C10.2104 14.9566 10.037 15.0259 9.82905 15.0259C9.62105 15.0259 9.44771 14.9566 9.30905 14.8179C9.17038 14.6792 9.10105 14.5059 9.10105 14.2979ZM9.32205 12.2699C9.32205 11.8886 9.38271 11.5592 9.50405 11.2819C9.63405 11.0046 9.79438 10.7619 9.98505 10.5539C10.1757 10.3372 10.3837 10.1422 10.609 9.96889C10.8344 9.79556 11.0424 9.62223 11.233 9.44889C11.4237 9.26689 11.5797 9.07623 11.701 8.87689C11.831 8.67756 11.896 8.44356 11.896 8.17489C11.896 7.75889 11.7314 7.41223 11.402 7.13489C11.0727 6.84889 10.609 6.70589 10.011 6.70589C9.49105 6.70589 9.02738 6.82723 8.62005 7.06989C8.3569 7.22435 8.12585 7.43544 7.9269 7.70317C7.75075 7.94021 7.43089 8.04564 7.17134 7.90474C6.92656 7.77186 6.82447 7.46799 6.97505 7.23368C7.25314 6.80097 7.60647 6.45604 8.03505 6.19889C8.60705 5.86089 9.26571 5.69189 10.011 5.69189C10.479 5.69189 10.895 5.75689 11.259 5.88689C11.623 6.01689 11.9307 6.19456 12.182 6.41989C12.4334 6.64523 12.624 6.90956 12.754 7.21289C12.8927 7.51623 12.962 7.83689 12.962 8.17489C12.962 8.53023 12.897 8.83789 12.767 9.09789C12.637 9.34923 12.4724 9.57889 12.273 9.78689C12.0824 9.99489 11.8744 10.1856 11.649 10.3589C11.4237 10.5322 11.2114 10.7142 11.012 10.9049C10.8214 11.0956 10.661 11.3036 10.531 11.5289C10.401 11.7456 10.336 12.0012 10.336 12.2959C10.336 12.5687 10.1149 12.7899 9.84205 12.7899H9.82905C9.54904 12.7899 9.32205 12.5629 9.32205 12.2829V12.2699Z" fill="white"/>
</g>
<defs>
<clipPath id="clip0_86_271">
<rect width="20" height="20" fill="white"/>
</clipPath>
</defs>
</svg>
